<svg width="48" height="48" viewBox="0 0 48 48" fill="none" xmlns="http://www.w3.org/2000/svg">
<path d="M24.5213 9.4949C24.3818 9.36139 24.1961 9.28687 24.0029 9.28687C23.8098 9.28687 23.624 9.36139 23.4845 9.4949L6.2251 25.9827C6.1518 26.0528 6.09349 26.1371 6.05368 26.2304C6.01388 26.3237 5.99342 26.4241 5.99354 26.5255L5.99072 41.9999C5.99072 42.7956 6.30679 43.5586 6.8694 44.1212C7.43201 44.6838 8.19507 44.9999 8.99072 44.9999H18.0001C18.3979 44.9999 18.7795 44.8419 19.0608 44.5606C19.3421 44.2793 19.5001 43.8977 19.5001 43.4999V30.7499C19.5001 30.551 19.5791 30.3602 19.7198 30.2196C19.8604 30.0789 20.0512 29.9999 20.2501 29.9999H27.7501C27.949 29.9999 28.1398 30.0789 28.2804 30.2196C28.4211 30.3602 28.5001 30.551 28.5001 30.7499V43.4999C28.5001 43.8977 28.6581 44.2793 28.9394 44.5606C29.2207 44.8419 29.6023 44.9999 30.0001 44.9999H39.0057C39.8014 44.9999 40.5644 44.6838 41.127 44.1212C41.6897 43.5586 42.0057 42.7956 42.0057 41.9999V26.5255C42.0058 26.4241 41.9854 26.3237 41.9456 26.2304C41.9058 26.1371 41.8475 26.0528 41.7742 25.9827L24.5213 9.4949Z" fill="#EAFFFC"/>
<path d="M46.0228 22.8891L39.0103 16.1803V6C39.0103 5.60218 38.8523 5.22064 38.571 4.93934C38.2897 4.65804 37.9082 4.5 37.5103 4.5H33.0103C32.6125 4.5 32.231 4.65804 31.9497 4.93934C31.6684 5.22064 31.5103 5.60218 31.5103 6V9L26.0803 3.80812C25.5722 3.29437 24.8166 3 24 3C23.1863 3 22.4325 3.29438 21.9244 3.80906L1.98379 22.8872C1.40066 23.4497 1.32754 24.375 1.85816 24.9844C1.99141 25.1382 2.15456 25.2633 2.33769 25.352C2.52082 25.4408 2.72009 25.4914 2.92339 25.5007C3.12668 25.51 3.32974 25.4778 3.5202 25.4061C3.71067 25.3344 3.88456 25.2248 4.03129 25.0837L23.4844 6.495C23.624 6.36148 23.8097 6.28696 24.0028 6.28696C24.196 6.28696 24.3817 6.36148 24.5213 6.495L43.9763 25.0837C44.2629 25.3586 44.6467 25.5086 45.0437 25.5008C45.4407 25.4931 45.8184 25.3283 46.0941 25.0425C46.6697 24.4462 46.6219 23.4619 46.0228 22.8891Z" fill="#EAFFFC"/>
</svg>
