<svg width="35" height="37" viewBox="0 0 35 37" fill="none" xmlns="http://www.w3.org/2000/svg">
<path d="M23.7637 2.85543C22.1732 1.13832 19.9519 0.192719 17.5 0.192719C15.0351 0.192719 12.8063 1.1326 11.2233 2.83909C9.62301 4.56437 8.84332 6.90916 9.02639 9.44111C9.38926 14.4364 13.1905 18.4999 17.5 18.4999C21.8095 18.4999 25.6042 14.4372 25.9728 9.44275C26.1583 6.93368 25.3737 4.5938 23.7637 2.85543ZM31.8842 36.8071H3.11578C2.73923 36.812 2.36632 36.7329 2.02418 36.5755C1.68205 36.4182 1.3793 36.1865 1.13795 35.8974C0.606715 35.2624 0.392586 34.3953 0.551139 33.5183C1.24093 29.6918 3.39366 26.4774 6.77722 24.2209C9.78319 22.2177 13.5909 21.1152 17.5 21.1152C21.4091 21.1152 25.2168 22.2185 28.2228 24.2209C31.6063 26.4766 33.7591 29.691 34.4489 33.5175C34.6074 34.3944 34.3933 35.2616 33.8621 35.8966C33.6208 36.1858 33.3181 36.4176 32.9759 36.5751C32.6338 36.7326 32.2608 36.8119 31.8842 36.8071Z" fill="#EAFFFC"/>
</svg>
