<svg width="89" height="79" viewBox="0 0 89 79" fill="none" xmlns="http://www.w3.org/2000/svg">
<rect y="36.4207" width="43.4012" height="65.1018" rx="3.91822" transform="rotate(-49.7802 0 36.4207)" fill="#690505"/>
<rect x="1.4087" y="36.3029" width="41.4021" height="63.1027" rx="2.91864" transform="rotate(-49.7802 1.4087 36.3029)" stroke="url(#paint0_linear_73_232)" stroke-opacity="0.1" stroke-width="1.99916"/>
<rect x="12.6528" y="23.426" width="43.4012" height="65.1018" rx="3.91822" transform="rotate(-32.6669 12.6528 23.426)" fill="#8B0303"/>
<rect x="14.0338" y="23.728" width="41.4021" height="63.1027" rx="2.91864" transform="rotate(-32.6669 14.0338 23.728)" stroke="url(#paint1_linear_73_232)" stroke-opacity="0.2" stroke-width="1.99916"/>
<rect x="28.9795" y="13.9299" width="43.4012" height="65.1018" rx="3.91822" transform="rotate(-15.1339 28.9795 13.9299)" fill="#B71414" fill-opacity="0.9"/>
<rect x="30.2054" y="14.6339" width="41.4021" height="63.1026" rx="2.91864" transform="rotate(-15.1339 30.2054 14.6339)" stroke="url(#paint2_linear_73_232)" stroke-opacity="0.4" stroke-width="1.99916"/>
<rect x="44.0256" y="11.9309" width="43.4012" height="65.1018" rx="3.91822" transform="rotate(-0.94987 44.0256 11.9309)" fill="#D13C33"/>
<rect x="45.0416" y="12.9138" width="41.4021" height="63.1027" rx="2.91864" transform="rotate(-0.94987 45.0416 12.9138)" stroke="url(#paint3_linear_73_232)" stroke-opacity="0.6" stroke-width="1.99916"/>
<defs>
<linearGradient id="paint0_linear_73_232" x1="21.7006" y1="36.4207" x2="21.7006" y2="101.522" gradientUnits="userSpaceOnUse">
<stop stop-color="white"/>
<stop offset="1" stop-color="white" stop-opacity="0"/>
</linearGradient>
<linearGradient id="paint1_linear_73_232" x1="34.3534" y1="23.426" x2="34.3534" y2="88.5279" gradientUnits="userSpaceOnUse">
<stop stop-color="white"/>
<stop offset="1" stop-color="white" stop-opacity="0"/>
</linearGradient>
<linearGradient id="paint2_linear_73_232" x1="50.6801" y1="13.9299" x2="50.6801" y2="79.0317" gradientUnits="userSpaceOnUse">
<stop stop-color="white"/>
<stop offset="1" stop-color="white" stop-opacity="0"/>
</linearGradient>
<linearGradient id="paint3_linear_73_232" x1="65.7262" y1="11.9309" x2="65.7262" y2="77.0327" gradientUnits="userSpaceOnUse">
<stop stop-color="white"/>
<stop offset="1" stop-color="white" stop-opacity="0"/>
</linearGradient>
</defs>
</svg>
