<svg width="121" height="89" viewBox="0 0 121 89" fill="none" xmlns="http://www.w3.org/2000/svg">
<path d="M60 0C46.7665 0 36 10.7665 36 24C36 37.2335 46.7665 48 60 48C73.2335 48 84 37.2335 84 24C84 10.7665 73.2335 0 60 0ZM69.2308 25.8462H61.8462V33.2308C61.8462 33.7204 61.6517 34.19 61.3054 34.5362C60.9592 34.8824 60.4896 35.0769 60 35.0769C59.5104 35.0769 59.0408 34.8824 58.6946 34.5362C58.3484 34.19 58.1538 33.7204 58.1538 33.2308V25.8462H50.7692C50.2796 25.8462 49.81 25.6517 49.4638 25.3054C49.1176 24.9592 48.9231 24.4896 48.9231 24C48.9231 23.5104 49.1176 23.0408 49.4638 22.6946C49.81 22.3484 50.2796 22.1538 50.7692 22.1538H58.1538V14.7692C58.1538 14.2796 58.3484 13.81 58.6946 13.4638C59.0408 13.1176 59.5104 12.9231 60 12.9231C60.4896 12.9231 60.9592 13.1176 61.3054 13.4638C61.6517 13.81 61.8462 14.2796 61.8462 14.7692V22.1538H69.2308C69.7204 22.1538 70.19 22.3484 70.5362 22.6946C70.8824 23.0408 71.0769 23.5104 71.0769 24C71.0769 24.4896 70.8824 24.9592 70.5362 25.3054C70.19 25.6517 69.7204 25.8462 69.2308 25.8462Z" fill="#023F4A"/>
<path d="M1.48 67H4.86V78.1H10.48V81H1.48V67ZM14.2209 74C14.2209 74.8267 14.3809 75.56 14.7009 76.2C15.0343 76.8267 15.4943 77.32 16.0809 77.68C16.6809 78.04 17.3809 78.22 18.1809 78.22C18.9676 78.22 19.6543 78.04 20.2409 77.68C20.8409 77.32 21.3009 76.8267 21.6209 76.2C21.9543 75.56 22.1209 74.8267 22.1209 74C22.1209 73.1733 21.9609 72.4467 21.6409 71.82C21.3209 71.18 20.8676 70.68 20.2809 70.32C19.6943 69.96 18.9943 69.78 18.1809 69.78C17.3809 69.78 16.6809 69.96 16.0809 70.32C15.4943 70.68 15.0343 71.18 14.7009 71.82C14.3809 72.4467 14.2209 73.1733 14.2209 74ZM10.6409 74C10.6409 72.92 10.8276 71.9333 11.2009 71.04C11.5876 70.1467 12.1209 69.3733 12.8009 68.72C13.4809 68.0667 14.2809 67.5667 15.2009 67.22C16.1209 66.86 17.1143 66.68 18.1809 66.68C19.2609 66.68 20.2543 66.86 21.1609 67.22C22.0809 67.5667 22.8809 68.0667 23.5609 68.72C24.2409 69.3733 24.7676 70.1467 25.1409 71.04C25.5143 71.9333 25.7009 72.92 25.7009 74C25.7009 75.08 25.5143 76.0733 25.1409 76.98C24.7809 77.8867 24.2609 78.6733 23.5809 79.34C22.9143 80.0067 22.1209 80.5267 21.2009 80.9C20.2809 81.26 19.2743 81.44 18.1809 81.44C17.0743 81.44 16.0609 81.26 15.1409 80.9C14.2209 80.5267 13.4209 80.0067 12.7409 79.34C12.0743 78.6733 11.5543 77.8867 11.1809 76.98C10.8209 76.0733 10.6409 75.08 10.6409 74ZM29.4613 78.3L29.7013 75.72H36.6413L36.8613 78.3H29.4613ZM33.1213 72.14L31.1613 76.66L31.3213 77.4L29.5813 81H25.7612L33.1213 66.12L40.5013 81H36.6613L34.9813 77.54L35.1013 76.68L33.1213 72.14ZM41.9683 67H45.4483V81H41.9683V67ZM46.9683 81H44.2083V78H46.8483C47.3816 78 47.8949 77.9333 48.3883 77.8C48.8949 77.6667 49.3349 77.4467 49.7083 77.14C50.0949 76.8333 50.4016 76.4267 50.6283 75.92C50.8549 75.4 50.9683 74.76 50.9683 74C50.9683 73.24 50.8549 72.6067 50.6283 72.1C50.4016 71.58 50.0949 71.1667 49.7083 70.86C49.3349 70.5533 48.8949 70.3333 48.3883 70.2C47.8949 70.0667 47.3816 70 46.8483 70H44.2083V67H46.9683C48.5016 67 49.8283 67.2867 50.9483 67.86C52.0683 68.4333 52.9349 69.24 53.5483 70.28C54.1616 71.32 54.4683 72.56 54.4683 74C54.4683 75.4267 54.1616 76.6667 53.5483 77.72C52.9349 78.76 52.0683 79.5667 50.9483 80.14C49.8283 80.7133 48.5016 81 46.9683 81ZM66.2323 73.86L65.3923 81H61.8323L64.0923 66.3L70.0523 74.84L76.0323 66.3L78.2923 81H74.7323L73.8923 73.86L70.0523 79.7L66.2323 73.86ZM83.2248 74C83.2248 74.8267 83.3848 75.56 83.7048 76.2C84.0382 76.8267 84.4982 77.32 85.0848 77.68C85.6848 78.04 86.3848 78.22 87.1848 78.22C87.9715 78.22 88.6582 78.04 89.2448 77.68C89.8448 77.32 90.3048 76.8267 90.6248 76.2C90.9582 75.56 91.1248 74.8267 91.1248 74C91.1248 73.1733 90.9648 72.4467 90.6448 71.82C90.3248 71.18 89.8715 70.68 89.2848 70.32C88.6982 69.96 87.9982 69.78 87.1848 69.78C86.3848 69.78 85.6848 69.96 85.0848 70.32C84.4982 70.68 84.0382 71.18 83.7048 71.82C83.3848 72.4467 83.2248 73.1733 83.2248 74ZM79.6448 74C79.6448 72.92 79.8315 71.9333 80.2048 71.04C80.5915 70.1467 81.1248 69.3733 81.8048 68.72C82.4848 68.0667 83.2848 67.5667 84.2048 67.22C85.1248 66.86 86.1182 66.68 87.1848 66.68C88.2648 66.68 89.2582 66.86 90.1648 67.22C91.0848 67.5667 91.8848 68.0667 92.5648 68.72C93.2448 69.3733 93.7715 70.1467 94.1448 71.04C94.5182 71.9333 94.7048 72.92 94.7048 74C94.7048 75.08 94.5182 76.0733 94.1448 76.98C93.7848 77.8867 93.2648 78.6733 92.5848 79.34C91.9182 80.0067 91.1248 80.5267 90.2048 80.9C89.2848 81.26 88.2782 81.44 87.1848 81.44C86.0782 81.44 85.0648 81.26 84.1448 80.9C83.2248 80.5267 82.4248 80.0067 81.7448 79.34C81.0782 78.6733 80.5582 77.8867 80.1848 76.98C79.8248 76.0733 79.6448 75.08 79.6448 74ZM100.371 74.66H103.871L108.251 81H104.291L100.371 74.66ZM96.8706 67H100.251V81H96.8706V67ZM98.9906 69.86V67H101.971C103.171 67 104.171 67.1933 104.971 67.58C105.771 67.9667 106.377 68.5067 106.791 69.2C107.204 69.88 107.411 70.6733 107.411 71.58C107.411 72.4733 107.204 73.2667 106.791 73.96C106.377 74.64 105.771 75.1733 104.971 75.56C104.171 75.9467 103.171 76.14 101.971 76.14H98.9906V73.52H101.731C102.184 73.52 102.571 73.4533 102.891 73.32C103.224 73.1733 103.477 72.9667 103.651 72.7C103.824 72.42 103.911 72.0867 103.911 71.7C103.911 71.3133 103.824 70.9867 103.651 70.72C103.477 70.44 103.224 70.2267 102.891 70.08C102.571 69.9333 102.184 69.86 101.731 69.86H98.9906ZM112.06 81V78.22H119.12V81H112.06ZM112.06 69.78V67H119.12V69.78H112.06ZM112.06 75V72.28H118.72V75H112.06ZM109.82 67H113.06V81H109.82V67Z" fill="#023F4A"/>
</svg>
