<svg width="93" height="93" viewBox="0 0 93 93" fill="none" xmlns="http://www.w3.org/2000/svg">
<path d="M38.756 28.3497C38.756 31.0059 38.756 33.5804 39.5938 35.9915C30.7873 46.3305 7.53486 73.649 5.36899 75.7331C4.93853 76.1193 4.59418 76.5918 4.35832 77.1199C4.12246 77.6479 4.00037 78.2197 4 78.798C4 80.5348 5.0625 82.2103 5.96154 83.1502C7.3101 84.5601 13.0721 89.893 14.1346 88.8714C17.2813 85.8065 17.9147 84.9891 19.2019 83.7223C21.143 81.8221 18.9976 77.9399 19.6719 76.3665C20.3462 74.7932 21.0613 74.4867 22.226 74.2415C23.3906 73.9963 25.4543 74.8341 27.0685 74.8545C28.7644 74.875 29.6839 74.1598 30.9507 72.9747C31.9724 72.0348 32.708 71.1562 32.7284 69.7872C32.7693 67.9483 30.113 65.5168 32.095 63.5757C34.077 61.6346 36.9375 64.8425 39.0421 64.5973C41.1467 64.3521 43.7008 61.4302 43.9664 60.1838C44.232 58.9374 41.5758 55.7295 41.9844 53.911C42.1274 53.298 43.3738 51.8677 44.3137 51.6634C45.2536 51.4591 49.4219 53.0733 50.3618 52.8689C51.5061 52.6237 52.8342 51.4182 53.9171 50.7439C57.0842 52.1129 59.9652 52.6646 63.6635 52.6646C77.6599 52.6646 89.0001 41.7535 89.0001 28.3088C89.0001 14.8641 77.6599 4 63.6635 4C49.6671 4 38.756 14.9049 38.756 28.3497ZM75.9232 23.6154C75.9232 24.9086 75.5397 26.1727 74.8212 27.248C74.1028 28.3232 73.0816 29.1613 71.8868 29.6562C70.6921 30.151 69.3774 30.2805 68.1091 30.0282C66.8408 29.776 65.6757 29.1532 64.7613 28.2388C63.8469 27.3244 63.2241 26.1593 62.9718 24.891C62.7196 23.6227 62.849 22.308 63.3439 21.1132C63.8388 19.9185 64.6769 18.8973 65.7521 18.1789C66.8273 17.4604 68.0915 17.0769 69.3847 17.0769C71.1188 17.0769 72.7819 17.7658 74.0081 18.992C75.2343 20.2182 75.9232 21.8813 75.9232 23.6154Z" stroke="#0E5E6B" stroke-width="6.53847" stroke-linejoin="round"/>
</svg>
