<svg width="128" height="79" viewBox="0 0 128 79" fill="none" xmlns="http://www.w3.org/2000/svg">
<rect y="36.4205" width="43.4012" height="65.1018" rx="3.91822" transform="rotate(-49.7802 0 36.4205)" fill="#023F4A"/>
<rect x="1.4087" y="36.3027" width="41.4021" height="63.1027" rx="2.91864" transform="rotate(-49.7802 1.4087 36.3027)" stroke="url(#paint0_linear_73_558)" stroke-opacity="0.1" stroke-width="1.99916"/>
<rect x="12.6528" y="23.426" width="43.4012" height="65.1018" rx="3.91822" transform="rotate(-32.6669 12.6528 23.426)" fill="#0B717F"/>
<rect x="14.0338" y="23.728" width="41.4021" height="63.1027" rx="2.91864" transform="rotate(-32.6669 14.0338 23.728)" stroke="url(#paint1_linear_73_558)" stroke-opacity="0.2" stroke-width="1.99916"/>
<rect x="28.9795" y="13.9299" width="43.4012" height="65.1018" rx="3.91822" transform="rotate(-15.1339 28.9795 13.9299)" fill="#0095A4"/>
<rect x="30.2054" y="14.6339" width="41.4021" height="63.1026" rx="2.91864" transform="rotate(-15.1339 30.2054 14.6339)" stroke="url(#paint2_linear_73_558)" stroke-opacity="0.4" stroke-width="1.99916"/>
<rect x="44.0256" y="11.9308" width="43.4012" height="65.1018" rx="3.91822" transform="rotate(-0.94987 44.0256 11.9308)" fill="#00B4C4"/>
<rect x="45.0416" y="12.9137" width="41.4021" height="63.1027" rx="2.91864" transform="rotate(-0.94987 45.0416 12.9137)" stroke="url(#paint3_linear_73_558)" stroke-opacity="0.6" stroke-width="1.99916"/>
<path d="M114.078 10.4095L80.0613 44.5095L78 49.4995L82.99 47.4383L117.09 13.422L114.078 10.4095ZM120.884 3.60454L119.41 5.07704L122.423 8.08954L123.896 6.61579C124.283 6.22881 124.5 5.70412 124.5 5.15704C124.5 4.60997 124.283 4.08528 123.896 3.69829L123.803 3.60454C123.611 3.41288 123.383 3.26084 123.133 3.15712C122.883 3.05339 122.614 3 122.343 3C122.072 3 121.804 3.05339 121.553 3.15712C121.303 3.26084 121.075 3.41288 120.884 3.60454Z" stroke="#023F4A" stroke-width="5.5" stroke-linecap="round" stroke-linejoin="round"/>
<defs>
<linearGradient id="paint0_linear_73_558" x1="21.7006" y1="36.4205" x2="21.7006" y2="101.522" gradientUnits="userSpaceOnUse">
<stop stop-color="white"/>
<stop offset="1" stop-color="white" stop-opacity="0"/>
</linearGradient>
<linearGradient id="paint1_linear_73_558" x1="34.3534" y1="23.426" x2="34.3534" y2="88.5279" gradientUnits="userSpaceOnUse">
<stop stop-color="white"/>
<stop offset="1" stop-color="white" stop-opacity="0"/>
</linearGradient>
<linearGradient id="paint2_linear_73_558" x1="50.6801" y1="13.9299" x2="50.6801" y2="79.0317" gradientUnits="userSpaceOnUse">
<stop stop-color="white"/>
<stop offset="1" stop-color="white" stop-opacity="0"/>
</linearGradient>
<linearGradient id="paint3_linear_73_558" x1="65.7262" y1="11.9308" x2="65.7262" y2="77.0326" gradientUnits="userSpaceOnUse">
<stop stop-color="white"/>
<stop offset="1" stop-color="white" stop-opacity="0"/>
</linearGradient>
</defs>
</svg>
