<svg width="121" height="79" viewBox="0 0 121 79" fill="none" xmlns="http://www.w3.org/2000/svg">
<rect y="36.4205" width="43.4012" height="65.1018" rx="3.91822" transform="rotate(-49.7802 0 36.4205)" fill="#690505"/>
<rect x="1.4087" y="36.3027" width="41.4021" height="63.1027" rx="2.91864" transform="rotate(-49.7802 1.4087 36.3027)" stroke="url(#paint0_linear_73_567)" stroke-opacity="0.1" stroke-width="1.99916"/>
<rect x="12.6528" y="23.426" width="43.4012" height="65.1018" rx="3.91822" transform="rotate(-32.6669 12.6528 23.426)" fill="#8B0303"/>
<rect x="14.0338" y="23.728" width="41.4021" height="63.1027" rx="2.91864" transform="rotate(-32.6669 14.0338 23.728)" stroke="url(#paint1_linear_73_567)" stroke-opacity="0.2" stroke-width="1.99916"/>
<rect x="28.9795" y="13.9299" width="43.4012" height="65.1018" rx="3.91822" transform="rotate(-15.1339 28.9795 13.9299)" fill="#B71414" fill-opacity="0.9"/>
<rect x="30.2054" y="14.6339" width="41.4021" height="63.1026" rx="2.91864" transform="rotate(-15.1339 30.2054 14.6339)" stroke="url(#paint2_linear_73_567)" stroke-opacity="0.4" stroke-width="1.99916"/>
<rect x="44.0256" y="11.9308" width="43.4012" height="65.1018" rx="3.91822" transform="rotate(-0.94987 44.0256 11.9308)" fill="#D13C33"/>
<rect x="45.0416" y="12.9137" width="41.4021" height="63.1027" rx="2.91864" transform="rotate(-0.94987 45.0416 12.9137)" stroke="url(#paint3_linear_73_567)" stroke-opacity="0.6" stroke-width="1.99916"/>
<path d="M107.078 10.4095L73.0613 44.5095L71 49.4995L75.99 47.4383L110.09 13.422L107.078 10.4095ZM113.884 3.60454L112.41 5.07704L115.423 8.08954L116.896 6.61579C117.283 6.22881 117.5 5.70412 117.5 5.15704C117.5 4.60997 117.283 4.08528 116.896 3.69829L116.803 3.60454C116.611 3.41288 116.383 3.26084 116.133 3.15712C115.883 3.05339 115.614 3 115.343 3C115.072 3 114.804 3.05339 114.553 3.15712C114.303 3.26084 114.075 3.41288 113.884 3.60454Z" stroke="#690505" stroke-width="5.5" stroke-linecap="round" stroke-linejoin="round"/>
<defs>
<linearGradient id="paint0_linear_73_567" x1="21.7006" y1="36.4205" x2="21.7006" y2="101.522" gradientUnits="userSpaceOnUse">
<stop stop-color="white"/>
<stop offset="1" stop-color="white" stop-opacity="0"/>
</linearGradient>
<linearGradient id="paint1_linear_73_567" x1="34.3534" y1="23.426" x2="34.3534" y2="88.5279" gradientUnits="userSpaceOnUse">
<stop stop-color="white"/>
<stop offset="1" stop-color="white" stop-opacity="0"/>
</linearGradient>
<linearGradient id="paint2_linear_73_567" x1="50.6801" y1="13.9299" x2="50.6801" y2="79.0317" gradientUnits="userSpaceOnUse">
<stop stop-color="white"/>
<stop offset="1" stop-color="white" stop-opacity="0"/>
</linearGradient>
<linearGradient id="paint3_linear_73_567" x1="65.7262" y1="11.9308" x2="65.7262" y2="77.0326" gradientUnits="userSpaceOnUse">
<stop stop-color="white"/>
<stop offset="1" stop-color="white" stop-opacity="0"/>
</linearGradient>
</defs>
</svg>
