<svg width="152" height="136" viewBox="0 0 152 136" fill="none" xmlns="http://www.w3.org/2000/svg">
<g clip-path="url(#clip0_83_1956)">
<path d="M45.439 68.074L90.7171 107.621C93.3062 109.933 96.8807 109.923 99.2023 107.578L123.474 83.0601C125.805 80.7056 125.746 77.1645 123.431 74.5749L83.4296 29.6981" stroke="#A7231A" stroke-width="6" stroke-linecap="round" stroke-linejoin="round"/>
<path d="M39.4844 71.8355L85.9174 24.9316L39.4844 71.8355Z" fill="#A7231A"/>
<path d="M39.4844 71.8355L85.9174 24.9316" stroke="#A7231A" stroke-width="6" stroke-miterlimit="10" stroke-linecap="round"/>
</g>
<path d="M72.9623 57.3284L102.81 86.8766M63.4646 66.9224L94.3678 95.4046M82.4599 47.7344L111.253 78.3487" stroke="#A7231A" stroke-width="6" stroke-linecap="round" stroke-linejoin="round"/>
<path d="M19.8438 51.501L12.4613 50.1789C11.8788 50.0764 11.3224 49.8597 10.8239 49.5413C10.3255 49.2229 9.89494 48.8091 9.557 48.3237C9.21907 47.8383 8.98043 47.2909 8.85481 46.713C8.72919 46.1351 8.71907 45.538 8.82504 44.9561L11.4693 30.191C11.5719 29.6085 11.7886 29.0521 12.1069 28.5537C12.4253 28.0552 12.8391 27.6247 13.3245 27.2867C13.8099 26.9488 14.3573 26.7102 14.9352 26.5845C15.5132 26.4589 16.1102 26.4488 16.6921 26.5548L24.0747 27.8769" stroke="#A7231A" stroke-width="6" stroke-linecap="round" stroke-linejoin="round"/>
<path d="M20.2864 72.2254L31.9212 7.25898L20.2864 72.2254Z" fill="#A7231A"/>
<path d="M20.2864 72.2254L31.9212 7.25898" stroke="#A7231A" stroke-width="6" stroke-miterlimit="10" stroke-linecap="round"/>
<defs>
<clipPath id="clip0_83_1956">
<rect width="96" height="96" fill="white" transform="translate(15.741 68.2239) rotate(-45.2891)"/>
</clipPath>
</defs>
</svg>
