<svg width="48" height="48" viewBox="0 0 48 48" fill="none" xmlns="http://www.w3.org/2000/svg">
<path d="M12.9233 24C12.9233 23.4213 13.1178 22.8664 13.464 22.4572C13.8103 22.0481 14.2799 21.8182 14.7695 21.8182H31.3852V7.63636C31.3852 3.27273 27.4863 0 24.0004 0H6.46165C4.74848 0.00216576 3.106 0.807405 1.8946 2.23903C0.683201 3.67066 0.0018326 5.61174 0 7.63636V40.3636C0.0018326 42.3883 0.683201 44.3293 1.8946 45.761C3.106 47.1926 4.74848 47.9978 6.46165 48H24.9235C26.6367 47.9978 28.2792 47.1926 29.4906 45.761C30.702 44.3293 31.3833 42.3883 31.3852 40.3636V26.1818H14.7695C14.2799 26.1818 13.8103 25.9519 13.464 25.5428C13.1178 25.1336 12.9233 24.5787 12.9233 24ZM47.4597 22.4577L38.2288 11.5486C37.8797 11.1567 37.4149 10.9415 36.9335 10.9488C36.4521 10.9561 35.9921 11.1853 35.6517 11.5876C35.3113 11.99 35.1173 12.5335 35.1111 13.1025C35.105 13.6714 35.2871 14.2207 35.6187 14.6332L41.6973 21.8182H31.3852V26.1818H41.6973L35.6187 33.3668C35.4401 33.5674 35.2972 33.8082 35.1985 34.0751C35.0999 34.342 35.0474 34.6295 35.0443 34.9207C35.0411 35.2119 35.0873 35.5009 35.1802 35.7706C35.273 36.0404 35.4106 36.2854 35.5849 36.4914C35.7591 36.6973 35.9665 36.8599 36.1947 36.9696C36.423 37.0793 36.6675 37.134 36.9139 37.1302C37.1603 37.1265 37.4036 37.0645 37.6294 36.9479C37.8552 36.8313 38.059 36.6625 38.2288 36.4514L47.4597 25.5423C47.8057 25.1331 48 24.5784 48 24C48 23.4216 47.8057 22.8669 47.4597 22.4577Z" fill="#EAFFFC"/>
</svg>
