<svg width="220" height="119" viewBox="0 0 220 119" fill="none" xmlns="http://www.w3.org/2000/svg">
<rect x="58" y="35" width="42.2835" height="63.4252" rx="7.83972" transform="rotate(-49.7802 58 35)" fill="#023F4A"/>
<rect x="59.2276" y="34.8973" width="40.5413" height="61.683" rx="6.96864" transform="rotate(-49.7802 59.2276 34.8973)" stroke="url(#paint0_linear_193_422)" stroke-opacity="0.1" stroke-width="1.74216"/>
<rect x="68.8662" y="23" width="42.2835" height="63.4252" rx="7.83972" transform="rotate(-32.6669 68.8662 23)" fill="#0B717F"/>
<rect x="70.0697" y="23.2631" width="40.5413" height="61.683" rx="6.96864" transform="rotate(-32.6669 70.0697 23.2631)" stroke="url(#paint1_linear_193_422)" stroke-opacity="0.2" stroke-width="1.74216"/>
<rect x="83.3117" y="15" width="42.2835" height="63.4252" rx="7.83972" transform="rotate(-15.1339 83.3117 15)" fill="#0095A4"/>
<rect x="84.38" y="15.6135" width="40.5413" height="61.683" rx="6.96864" transform="rotate(-15.1339 84.38 15.6135)" stroke="url(#paint2_linear_193_422)" stroke-opacity="0.4" stroke-width="1.74216"/>
<rect x="97.9701" y="13" width="42.2835" height="63.4252" rx="7.83972" transform="rotate(-0.94987 97.9701 13)" fill="#00B4C4"/>
<rect x="98.8555" y="13.8565" width="40.5413" height="61.683" rx="6.96864" transform="rotate(-0.94987 98.8555 13.8565)" stroke="url(#paint3_linear_193_422)" stroke-opacity="0.6" stroke-width="1.74216"/>
<path d="M13.5908 105.5C13.5908 106.78 13.8808 107.89 14.4608 108.83C15.0408 109.75 15.8008 110.45 16.7408 110.93C17.7008 111.41 18.7508 111.65 19.8908 111.65C20.8908 111.65 21.7708 111.52 22.5308 111.26C23.2908 111 23.9708 110.66 24.5708 110.24C25.1708 109.82 25.7008 109.37 26.1608 108.89V114.35C25.3208 115.01 24.4008 115.53 23.4008 115.91C22.4008 116.29 21.1308 116.48 19.5908 116.48C17.9108 116.48 16.3608 116.22 14.9408 115.7C13.5208 115.18 12.3008 114.43 11.2808 113.45C10.2608 112.47 9.47078 111.31 8.91078 109.97C8.35078 108.63 8.07078 107.14 8.07078 105.5C8.07078 103.86 8.35078 102.37 8.91078 101.03C9.47078 99.69 10.2608 98.53 11.2808 97.55C12.3008 96.57 13.5208 95.82 14.9408 95.3C16.3608 94.78 17.9108 94.52 19.5908 94.52C21.1308 94.52 22.4008 94.71 23.4008 95.09C24.4008 95.47 25.3208 95.99 26.1608 96.65V102.11C25.7008 101.63 25.1708 101.18 24.5708 100.76C23.9708 100.32 23.2908 99.98 22.5308 99.74C21.7708 99.48 20.8908 99.35 19.8908 99.35C18.7508 99.35 17.7008 99.59 16.7408 100.07C15.8008 100.55 15.0408 101.25 14.4608 102.17C13.8808 103.09 13.5908 104.2 13.5908 105.5ZM34.4759 105.5C34.4759 106.74 34.7159 107.84 35.1959 108.8C35.6959 109.74 36.3859 110.48 37.2659 111.02C38.1659 111.56 39.2159 111.83 40.4159 111.83C41.5959 111.83 42.6259 111.56 43.5059 111.02C44.4059 110.48 45.0959 109.74 45.5759 108.8C46.0759 107.84 46.3259 106.74 46.3259 105.5C46.3259 104.26 46.0859 103.17 45.6059 102.23C45.1259 101.27 44.4459 100.52 43.5659 99.98C42.6859 99.44 41.6359 99.17 40.4159 99.17C39.2159 99.17 38.1659 99.44 37.2659 99.98C36.3859 100.52 35.6959 101.27 35.1959 102.23C34.7159 103.17 34.4759 104.26 34.4759 105.5ZM29.1059 105.5C29.1059 103.88 29.3859 102.4 29.9459 101.06C30.5259 99.72 31.3259 98.56 32.3459 97.58C33.3659 96.6 34.5659 95.85 35.9459 95.33C37.3259 94.79 38.8159 94.52 40.4159 94.52C42.0359 94.52 43.5259 94.79 44.8859 95.33C46.2659 95.85 47.4659 96.6 48.4859 97.58C49.5059 98.56 50.2959 99.72 50.8559 101.06C51.4159 102.4 51.6959 103.88 51.6959 105.5C51.6959 107.12 51.4159 108.61 50.8559 109.97C50.3159 111.33 49.5359 112.51 48.5159 113.51C47.5159 114.51 46.3259 115.29 44.9459 115.85C43.5659 116.39 42.0559 116.66 40.4159 116.66C38.7559 116.66 37.2359 116.39 35.8559 115.85C34.4759 115.29 33.2759 114.51 32.2559 113.51C31.2559 112.51 30.4759 111.33 29.9159 109.97C29.3759 108.61 29.1059 107.12 29.1059 105.5ZM54.9446 95H60.0146V111.65H68.4446V116H54.9446V95ZM70.7942 95H75.8642V111.65H84.2942V116H70.7942V95ZM90.0038 116V111.83H100.594V116H90.0038ZM90.0038 99.17V95H100.594V99.17H90.0038ZM90.0038 107V102.92H99.9938V107H90.0038ZM86.6438 95H91.5038V116H86.6438V95ZM109.04 105.5C109.04 106.78 109.33 107.89 109.91 108.83C110.49 109.75 111.25 110.45 112.19 110.93C113.15 111.41 114.2 111.65 115.34 111.65C116.34 111.65 117.22 111.52 117.98 111.26C118.74 111 119.42 110.66 120.02 110.24C120.62 109.82 121.15 109.37 121.61 108.89V114.35C120.77 115.01 119.85 115.53 118.85 115.91C117.85 116.29 116.58 116.48 115.04 116.48C113.36 116.48 111.81 116.22 110.39 115.7C108.97 115.18 107.75 114.43 106.73 113.45C105.71 112.47 104.92 111.31 104.36 109.97C103.8 108.63 103.52 107.14 103.52 105.5C103.52 103.86 103.8 102.37 104.36 101.03C104.92 99.69 105.71 98.53 106.73 97.55C107.75 96.57 108.97 95.82 110.39 95.3C111.81 94.78 113.36 94.52 115.04 94.52C116.58 94.52 117.85 94.71 118.85 95.09C119.85 95.47 120.77 95.99 121.61 96.65V102.11C121.15 101.63 120.62 101.18 120.02 100.76C119.42 100.32 118.74 99.98 117.98 99.74C117.22 99.48 116.34 99.35 115.34 99.35C114.2 99.35 113.15 99.59 112.19 100.07C111.25 100.55 110.49 101.25 109.91 102.17C109.33 103.09 109.04 104.2 109.04 105.5ZM122.747 99.53V95H139.367V99.53H133.577V116H128.507V99.53H122.747ZM144.339 105.5C144.339 106.74 144.579 107.84 145.059 108.8C145.559 109.74 146.249 110.48 147.129 111.02C148.029 111.56 149.079 111.83 150.279 111.83C151.459 111.83 152.489 111.56 153.369 111.02C154.269 110.48 154.959 109.74 155.439 108.8C155.939 107.84 156.189 106.74 156.189 105.5C156.189 104.26 155.949 103.17 155.469 102.23C154.989 101.27 154.309 100.52 153.429 99.98C152.549 99.44 151.499 99.17 150.279 99.17C149.079 99.17 148.029 99.44 147.129 99.98C146.249 100.52 145.559 101.27 145.059 102.23C144.579 103.17 144.339 104.26 144.339 105.5ZM138.969 105.5C138.969 103.88 139.249 102.4 139.809 101.06C140.389 99.72 141.189 98.56 142.209 97.58C143.229 96.6 144.429 95.85 145.809 95.33C147.189 94.79 148.679 94.52 150.279 94.52C151.899 94.52 153.389 94.79 154.749 95.33C156.129 95.85 157.329 96.6 158.349 97.58C159.369 98.56 160.159 99.72 160.719 101.06C161.279 102.4 161.559 103.88 161.559 105.5C161.559 107.12 161.279 108.61 160.719 109.97C160.179 111.33 159.399 112.51 158.379 113.51C157.379 114.51 156.189 115.29 154.809 115.85C153.429 116.39 151.919 116.66 150.279 116.66C148.619 116.66 147.099 116.39 145.719 115.85C144.339 115.29 143.139 114.51 142.119 113.51C141.119 112.51 140.339 111.33 139.779 109.97C139.239 108.61 138.969 107.12 138.969 105.5ZM164.808 95H169.878V116H164.808V95ZM167.988 99.17V95H172.098C173.878 95 175.368 95.28 176.568 95.84C177.788 96.38 178.708 97.16 179.328 98.18C179.948 99.2 180.258 100.43 180.258 101.87C180.258 103.27 179.948 104.49 179.328 105.53C178.708 106.55 177.788 107.34 176.568 107.9C175.368 108.44 173.878 108.71 172.098 108.71H167.988V104.54H172.098C173.118 104.54 173.918 104.31 174.498 103.85C175.078 103.39 175.368 102.73 175.368 101.87C175.368 100.99 175.078 100.32 174.498 99.86C173.918 99.4 173.118 99.17 172.098 99.17H167.988ZM183.499 95H188.659V116H183.499V95ZM196.409 111.95L196.769 108.08H207.179L207.509 111.95H196.409ZM201.899 102.71L198.959 109.49L199.199 110.6L196.589 116H190.859L201.899 93.68L212.969 116H207.209L204.689 110.81L204.869 109.52L201.899 102.71Z" fill="white"/>
<defs>
<linearGradient id="paint0_linear_193_422" x1="79.1417" y1="35" x2="79.1417" y2="98.4252" gradientUnits="userSpaceOnUse">
<stop stop-color="white"/>
<stop offset="1" stop-color="white" stop-opacity="0"/>
</linearGradient>
<linearGradient id="paint1_linear_193_422" x1="90.0079" y1="23" x2="90.0079" y2="86.4252" gradientUnits="userSpaceOnUse">
<stop stop-color="white"/>
<stop offset="1" stop-color="white" stop-opacity="0"/>
</linearGradient>
<linearGradient id="paint2_linear_193_422" x1="104.453" y1="15" x2="104.453" y2="78.4252" gradientUnits="userSpaceOnUse">
<stop stop-color="white"/>
<stop offset="1" stop-color="white" stop-opacity="0"/>
</linearGradient>
<linearGradient id="paint3_linear_193_422" x1="119.112" y1="13" x2="119.112" y2="76.4252" gradientUnits="userSpaceOnUse">
<stop stop-color="white"/>
<stop offset="1" stop-color="white" stop-opacity="0"/>
</linearGradient>
</defs>
</svg>
