<svg width="29" height="41" viewBox="0 0 29 41" fill="none" xmlns="http://www.w3.org/2000/svg">
<path d="M4.68125 39H24.318C26.0791 39 27.48 37.5511 27.2905 35.8817C26.0675 25.125 18.7689 25.3029 18.7689 20.5C18.7689 15.6971 26.1609 15.9639 27.2896 5.11832C27.4675 3.44798 26.0791 2 24.318 2H4.68125C2.92018 2 1.53534 3.44798 1.70967 5.11832C2.83836 15.9639 10.2304 15.6082 10.2304 20.5C10.2304 25.3918 2.93175 25.125 1.70967 35.8817C1.51933 37.5511 2.92018 39 4.68125 39Z" stroke="#EAFFFC" stroke-width="2.84616" stroke-linecap="round" stroke-linejoin="round"/>
<path d="M22.2641 35.1538H6.77296C5.38545 35.1538 4.9941 33.5529 5.96713 32.5603C8.32234 30.1731 13.0763 28.4636 13.0763 25.726V16.6538C13.0763 14.8883 9.69651 13.5409 7.60546 10.6769C7.26036 10.2046 7.29505 9.53845 8.17203 9.53845H20.8668C21.6148 9.53845 21.7767 10.1993 21.4361 10.6725C19.3753 13.5409 15.9225 14.8794 15.9225 16.6538V25.726C15.9225 28.4414 20.8775 29.9062 23.0735 32.5629C23.9585 33.6338 23.649 35.1538 22.2641 35.1538Z" fill="#EAFFFC"/>
</svg>
